<svg width="29" height="30" viewBox="0 0 29 30" fill="none" xmlns="http://www.w3.org/2000/svg">
<path d="M19.8288 20.2002H3.21342C3.01109 20.2002 2.81588 20.1256 2.66512 19.9906C2.51436 19.8556 2.41865 19.6699 2.39631 19.4687L0.934711 6.31248C0.921951 6.19755 0.933566 6.08121 0.968807 5.97107C1.00405 5.86094 1.06212 5.75946 1.13923 5.67329C1.21634 5.58713 1.31077 5.51819 1.41632 5.471C1.52188 5.42381 1.6362 5.39941 1.75183 5.39941H21.2905C21.4062 5.39941 21.5205 5.42381 21.626 5.471C21.7316 5.51819 21.8259 5.58713 21.9031 5.67329C21.9802 5.75946 22.0382 5.86094 22.0735 5.97107C22.1087 6.08121 22.1203 6.19755 22.1075 6.31248L20.646 19.4687C20.6236 19.6699 20.528 19.8556 20.3772 19.9906C20.2265 20.1256 20.0313 20.2002 19.8288 20.2002Z" stroke="black" stroke-width="1.31543" stroke-linecap="round" stroke-linejoin="round"/>
<path d="M7.41016 8.68848V5.39941C7.41016 4.30902 7.84325 3.26329 8.61416 2.49226C9.38507 1.72124 10.4306 1.28809 11.5209 1.28809C12.6111 1.28809 13.6567 1.72124 14.4276 2.49226C15.1986 3.26329 15.6316 4.30902 15.6316 5.39941V8.68848" stroke="black" stroke-width="1.31543" stroke-linecap="round" stroke-linejoin="round"/>
<rect x="13.3281" y="13.6699" width="14.69" height="16" rx="7.345" fill="#FF0000"/>
<path d="M21.206 25.8148C20.5327 25.812 19.9574 25.6344 19.4801 25.2821C19.0028 24.9299 18.6378 24.4171 18.3849 23.7438C18.1321 23.0705 18.0057 22.2594 18.0057 21.3105C18.0057 20.3645 18.1321 19.5563 18.3849 18.8858C18.6406 18.2154 19.0071 17.704 19.4844 17.3517C19.9645 16.9995 20.5384 16.8233 21.206 16.8233C21.8736 16.8233 22.446 17.0009 22.9233 17.356C23.4006 17.7083 23.7656 18.2196 24.0185 18.8901C24.2741 19.5577 24.402 20.3645 24.402 21.3105C24.402 22.2623 24.2756 23.0748 24.0227 23.748C23.7699 24.4185 23.4048 24.9313 22.9276 25.2864C22.4503 25.6387 21.8764 25.8148 21.206 25.8148ZM21.206 24.677C21.7969 24.677 22.2585 24.3887 22.5909 23.812C22.9261 23.2353 23.0938 22.4015 23.0938 21.3105C23.0938 20.5861 23.017 19.9739 22.8636 19.4739C22.7131 18.9711 22.4957 18.5904 22.2116 18.3319C21.9304 18.0705 21.5952 17.9398 21.206 17.9398C20.6179 17.9398 20.1563 18.2296 19.821 18.8091C19.4858 19.3887 19.3168 20.2225 19.3139 21.3105C19.3139 22.0378 19.3892 22.6529 19.5398 23.1557C19.6932 23.6557 19.9105 24.035 20.1918 24.2935C20.473 24.5492 20.8111 24.677 21.206 24.677Z" fill="white"/>
</svg>
