<svg width="26" height="26" viewBox="0 0 26 26" fill="none" xmlns="http://www.w3.org/2000/svg">
<g clip-path="url(#clip0_196_1418)">
<path d="M12.5195 24.4883C18.7759 24.4883 23.8477 19.4165 23.8477 13.1602C23.8477 6.90381 18.7759 1.83203 12.5195 1.83203C6.26318 1.83203 1.19141 6.90381 1.19141 13.1602C1.19141 19.4165 6.26318 24.4883 12.5195 24.4883Z" stroke="black" stroke-width="0.9375"/>
<path d="M12.5195 24.4883C12.1522 24.4883 11.7099 24.323 11.2054 23.8353C10.6952 23.3422 10.1823 22.5719 9.72616 21.5292C8.81534 19.4475 8.22266 16.4894 8.22266 13.1602C8.22266 9.83091 8.81534 6.87289 9.72616 4.79103C10.1823 3.74836 10.6952 2.97816 11.2054 2.48498C11.7099 1.99727 12.1522 1.83203 12.5195 1.83203C12.8869 1.83203 13.3292 1.99727 13.8337 2.48498C14.3438 2.97816 14.8567 3.74836 15.3129 4.79103C16.2237 6.87289 16.8164 9.83091 16.8164 13.1602C16.8164 16.4894 16.2237 19.4475 15.3129 21.5292C14.8567 22.5719 14.3438 23.3422 13.8337 23.8353C13.3292 24.323 12.8869 24.4883 12.5195 24.4883Z" stroke="black" stroke-width="0.9375"/>
<path d="M1.58203 9.64453H23.457" stroke="black" stroke-width="0.9375"/>
<path d="M1.58203 16.6758H23.457" stroke="black" stroke-width="0.9375"/>
</g>
<defs>
<clipPath id="clip0_196_1418">
<rect width="25" height="25" fill="white" transform="translate(0.0195312 0.660156)"/>
</clipPath>
</defs>
</svg>
