<svg width="176" height="79" viewBox="0 0 176 79" fill="none" xmlns="http://www.w3.org/2000/svg">
<path fill-rule="evenodd" clip-rule="evenodd" d="M32.5921 50.0513C31.5502 50.282 30.6101 50.1157 31.0617 49.4959C32.6435 47.4692 34.4054 46.0944 36.652 44.994C37.2254 44.7134 37.7945 44.4263 38.435 44.3896C38.8037 44.3682 39.0322 44.4721 38.5818 44.9014C37.57 45.0675 37.1255 45.5898 37.2482 46.4686L36.6406 47.3306C35.8031 48.5188 33.9339 49.7545 32.5921 50.0513ZM167.944 53.9084L168.75 53.9493L169.533 54.0688L170.289 54.2633L171.014 54.5287L171.703 54.8612L172.353 55.256C172.667 55.4784 172.956 55.7057 173.246 55.9577C173.523 56.2218 173.778 56.4877 174.03 56.7784C174.267 57.0802 174.48 57.3809 174.688 57.7053L175.052 58.3755L175.351 59.0832L175.582 59.8244L175.739 60.5945L175.82 61.3893V62.1992L175.739 62.9941L175.582 63.7643L175.351 64.5054L175.052 65.2131L174.688 65.8834L174.264 66.5125C174.027 66.8137 173.785 67.0923 173.52 67.3697C173.242 67.6347 172.964 67.8758 172.663 68.1128L172.034 68.5376L171.363 68.9017L170.656 69.201L169.914 69.4315L169.145 69.5891L168.35 69.6694H167.54L166.745 69.5891L165.975 69.4315L165.234 69.2011L164.526 68.9017L163.856 68.5376C163.532 68.3302 163.231 68.1162 162.929 67.8786C162.639 67.6278 162.373 67.3737 162.108 67.0962C161.856 66.8057 161.629 66.5159 161.407 66.2033L161.011 65.5532L160.679 64.8633L160.414 64.1387L160.219 63.3824L160.1 62.5996L160.059 61.794L160.1 60.9888L160.219 60.206L160.414 59.4498L160.679 58.7249L161.011 58.0353L161.407 57.3851C161.629 57.072 161.857 56.7821 162.108 56.4926C162.373 56.2138 162.639 55.9605 162.929 55.7099L163.535 55.256C163.861 55.0473 164.183 54.8627 164.526 54.6869L165.234 54.3875L165.974 54.157L166.745 53.9996L167.539 53.9188L167.944 53.9084ZM167.944 54.9875C168.297 54.9965 168.632 55.0215 168.982 55.0661C169.319 55.1261 169.638 55.1998 169.969 55.2936C170.287 55.4015 170.588 55.5195 170.895 55.6586C171.191 55.8103 171.468 55.9696 171.749 56.1502C172.02 56.3418 172.269 56.5382 172.521 56.7562C172.76 56.9839 172.98 57.2143 173.197 57.4651C173.402 57.7258 173.587 57.9855 173.766 58.2657C173.933 58.5548 174.079 58.8404 174.217 59.1453C174.341 59.4598 174.445 59.7668 174.537 60.0931C174.615 60.4291 174.673 60.7541 174.716 61.0977C174.743 61.4509 174.751 61.7902 174.742 62.1454C174.716 62.4919 174.675 62.823 174.613 63.1666C174.537 63.4979 174.448 63.8113 174.339 64.1345C174.216 64.446 174.083 64.7394 173.93 65.038C173.764 65.3263 173.592 65.5953 173.399 65.8664C173.194 66.1267 172.986 66.3674 172.758 66.6072C172.518 66.836 172.277 67.0442 172.017 67.249C171.745 67.4414 171.477 67.6143 171.188 67.7797C170.89 67.9329 170.597 68.0651 170.285 68.1881C169.961 68.2975 169.648 68.3863 169.317 68.4628C168.973 68.5244 168.643 68.5659 168.296 68.592C167.94 68.6006 167.603 68.5927 167.248 68.5659C166.906 68.5225 166.58 68.4645 166.244 68.3868C165.919 68.2943 165.611 68.1906 165.296 68.0664C164.991 67.9289 164.706 67.7826 164.417 67.616C164.137 67.4369 163.877 67.252 163.616 67.0467C163.365 66.8299 163.135 66.6103 162.907 66.3707C162.689 66.1195 162.493 65.8695 162.301 65.5992C162.121 65.3181 161.961 65.0411 161.809 64.7445C161.67 64.4378 161.552 64.1369 161.444 63.8183C161.35 63.4881 161.277 63.169 161.217 62.8317C161.172 62.4815 161.147 62.1462 161.138 61.7941C161.147 61.4413 161.172 61.1061 161.217 60.7572C161.277 60.4188 161.351 60.0998 161.444 59.7704C161.553 59.4508 161.67 59.1507 161.809 58.8445C161.961 58.5469 162.122 58.2695 162.301 57.9894C162.494 57.7183 162.689 57.4683 162.907 57.2178C163.136 56.9773 163.366 56.7586 163.616 56.5419C163.877 56.3367 164.137 56.1518 164.416 55.973C164.706 55.8062 164.991 55.66 165.296 55.5225C165.611 55.3979 165.919 55.2943 166.244 55.2018C166.581 55.1238 166.907 55.0662 167.248 55.0228L167.944 54.9875ZM164.498 65.7893V57.152H168.17C169.093 57.152 169.763 57.2305 170.181 57.3853C170.599 57.5403 170.935 57.8157 171.186 58.2119C171.438 58.6101 171.562 59.0626 171.562 59.5733C171.562 60.2208 171.371 60.7578 170.991 61.1801C170.612 61.6005 170.04 61.8679 169.282 61.9766C169.66 62.1976 169.971 62.4389 170.217 62.7024C170.463 62.9659 170.792 63.4323 171.209 64.104L172.264 65.7893H170.179L168.918 63.909C168.469 63.2373 168.164 62.815 167.999 62.6402C167.834 62.4651 167.659 62.3465 167.474 62.2801C167.289 62.2157 166.998 62.1835 166.595 62.1835H166.244V65.7893H164.498ZM166.244 60.8041H167.532C168.369 60.8041 168.892 60.7699 169.101 60.6995C169.308 60.6291 169.471 60.5064 169.589 60.3335C169.706 60.1606 169.767 59.9455 169.767 59.6859C169.767 59.3943 169.688 59.1611 169.534 58.9821C169.379 58.803 169.159 58.6905 168.876 58.6422C168.735 58.6242 168.311 58.6141 167.603 58.6141H166.244V60.8041ZM93.5447 42.3424C94.9599 43.9813 91.8016 47.1393 88.378 49.5711C85.1552 51.8603 81.968 53.1796 80.891 52.0474C80.0849 50.869 82.8442 46.8326 86.1662 44.3386C88.964 42.2383 92.4086 41.1828 93.5447 42.3424ZM131.345 34.2728C129.36 34.4076 126.532 34.6291 124.165 34.7407C126.231 30.8102 132.649 20.8344 136.064 15.7649C136.954 14.4424 137.166 13.0586 137.166 12.1546C137.166 10.0114 134.924 10.7628 134.115 11.779C130.711 16.0506 121.408 32.2603 120.25 34.9531C117.743 35.0776 113.803 35.2828 111.225 35.4634C108.592 35.6854 109.209 40.2551 111.878 39.7265C114.577 39.1919 117.283 38.64 118.496 38.3972L118.18 39.0497C113.486 44.1392 106.7 51.2918 100.656 54.5425C99.152 55.3513 96.0465 56.7316 96.2203 55.0396C96.3128 54.1395 97.4503 52.175 98.3443 50.8893C100.334 48.0283 104.008 44.973 106.836 42.131C107.866 41.0968 109.301 39.6234 108.822 38.0778C108.361 36.5845 107.31 36.2199 106.148 36.1995C105.403 36.1863 104.611 36.3147 103.898 36.3777C101.203 36.6157 98.683 36.8418 95.9694 37.0643C95.3494 37.1151 95.1104 37.3723 94.9093 37.8405C91.6558 37.2682 89.005 38.1051 85.2 40.1403C83.9081 40.8312 81.5893 42.4688 79.7185 45.2802C78.967 46.4096 78.2145 47.8065 77.7481 49.0429C77.3365 50.134 77.1643 51.1025 77.1676 51.6288C77.1776 53.2385 77.8507 54.5606 80.2032 54.9515C80.6828 55.0263 81.1636 55.0682 81.6392 55.0427C86.6143 54.7749 93.121 48.3249 95.9066 43.8987C97.5355 43.1815 97.3142 42.2707 97.3749 41.3487L102.378 40.853C98.7085 43.4419 85.9311 60.7843 97.3064 59.0498C102.679 58.2306 111.103 49.385 116.185 43.1105C116.424 42.8142 116.426 42.7696 116.258 43.1335C113.901 48.2501 111.761 53.3277 109.73 58.6577L109.735 58.6127L109.74 58.5677L109.746 58.5227L109.752 58.4778L109.758 58.4327L109.764 58.3879L109.77 58.3426L109.776 58.2977L109.781 58.2528L109.787 58.2078L109.793 58.1629L109.799 58.1177L109.805 58.0728L109.811 58.0278L109.817 57.9829L109.823 57.9378L109.828 57.8929L109.834 57.8479L109.84 57.8028L109.846 57.7578L109.851 57.7129L109.857 57.6678L109.863 57.623L109.869 57.5778L109.874 57.5329L109.88 57.488L109.886 57.4429L109.892 57.398L109.898 57.3529L109.904 57.3079L109.91 57.263L109.916 57.2179L109.921 57.1729L109.927 57.128L109.933 57.083L109.939 57.038L109.945 56.993L109.951 56.948L109.956 56.9031L109.962 56.858L109.967 56.8129L109.973 56.768L109.979 56.7231L109.985 56.6779L109.991 56.6331L109.997 56.588L110.003 56.5429L110.009 56.4981L110.014 56.453L110.02 56.4082L110.026 56.363L110.032 56.318L110.038 56.2731L110.044 56.2281L110.05 56.183L110.056 56.1381L110.061 56.0931L110.067 56.0481L110.072 56.0031L110.078 55.9581L110.084 55.9131L110.09 55.8682L110.096 55.8231L110.102 55.7781C110.228 54.8038 109.46 55.1443 109.22 55.793C108.327 58.209 106.283 62.1463 106.523 64.6766C106.69 66.4487 108.214 66.2632 108.964 64.9539C110.221 62.7591 110.978 60.8133 111.871 58.8839C115.548 50.7052 119.325 43.5967 122.589 37.5434C124.379 37.1565 125.479 36.9534 127.062 36.6514C127.463 36.6072 127.572 36.4856 127.041 36.9494C126.695 37.2526 126.384 37.5772 126.051 37.8939C125.838 38.1243 125.566 38.4537 125.234 38.8445C123.56 40.8175 119.383 47.6167 123.246 49.4432C128.83 52.0826 135.672 44.7194 139.378 40.9537C140.173 41.4045 141.74 39.3794 142.678 39.3383C141.492 42.0314 140.539 44.3363 140.453 45.485C140.329 47.1529 141.711 48.2834 143.158 47.636C151.382 43.9581 157.273 36.4282 166.17 32.8888C159.664 44.4259 154.49 55.5597 148.17 67.218C147.622 68.2298 148.816 68.5579 149.266 67.7951C155.996 56.381 161.686 45.4019 168.456 34.0366C169.003 33.119 169.531 32.3277 169.834 31.6174C170.743 29.4834 169.271 28.6003 167.567 28.7047C165.672 28.8212 163.4 30.1837 161.248 31.2875C155.456 34.6271 151.579 37.8605 145.862 41.5437C146.706 40.0991 148.194 37.3061 150.233 35.4591C152.886 33.0542 151.201 30.4 149.365 30.4329C146.109 30.4915 144.983 33.4786 142.238 34.9451C142 35.0725 141.759 35.1297 141.529 35.184C141.497 35.0342 141.466 34.8886 141.42 34.7435C140.872 32.9949 139.888 32.5529 137.01 32.6454C135.202 32.7038 133.239 33.3835 131.345 34.2728ZM128.682 41.0634C131.04 38.6182 134.121 36.9535 137.764 36.5563L137.765 36.5737V36.5911L137.766 36.6085V36.6259L137.767 36.6434V36.6606L137.768 36.678V36.6954L137.769 36.7129V36.7302L137.77 36.7476V36.765L137.771 36.7824L137.772 36.7997V36.8172L137.773 36.8346V36.8521L137.774 36.8694V36.8868L137.775 36.9042V36.9216L137.776 36.9391V36.9565L137.777 36.9737V36.9911L137.778 37.0086L137.779 37.026V37.0433L137.78 37.0608V37.0781L137.78 37.0955V37.1129L137.781 37.1303V37.1476L137.782 37.165V37.1824L137.783 37.1998L137.784 37.2172V37.2346L137.785 37.252V37.2693L137.786 37.2866V37.3041L137.787 37.3215V37.3388L137.788 37.3563V37.3737L137.789 37.3911V37.4084L137.79 37.4258L137.791 37.4432V37.4606L137.792 37.4781V37.4954L137.793 37.5127V37.5302L137.794 37.5476V37.5649L137.795 37.5823V37.5998L137.796 37.617L137.797 37.6344V37.6519L137.798 37.6693C137.831 38.7705 137.923 39.3088 138.331 40.3167C136.397 41.8154 128.877 48.5198 125.766 47.2342C123.878 46.4546 127.929 41.8456 128.682 41.0634ZM83.3063 37.366C89.067 28.7518 95.6461 20.7104 102.459 13.0094C105.976 9.03442 109.532 5.10075 113.181 1.26547C114.145 0.251914 113.064 -0.536544 112.085 0.458558C96.9341 15.8607 80.2173 33.3839 71.0645 53.747C73.9935 43.0368 78.1617 29.5432 81.4572 18.8203C82.9011 14.1215 80.2872 12.1066 78.0909 15.9481C75.3415 20.7567 72.5568 25.5432 69.9473 30.4427C64.1901 42.0479 57.2259 53.0958 51.329 64.6543C50.4848 66.309 49.3339 67.6891 49.0122 68.8692C48.0422 72.4264 51.4046 72.8575 52.7956 70.2698L74.3609 30.1572C75.0276 28.7211 73.1272 35.8169 70.6016 44.9414C68.1457 53.8157 65.5094 62.6411 63.053 71.5084C62.6953 72.7986 62.3808 74.1782 62.282 75.3588C62.0735 77.848 63.4923 79.019 64.7269 77.911C65.4678 77.2463 65.961 75.5161 66.505 73.4434C68.6119 65.4167 71.6415 57.9023 75.3254 50.7954C76.8122 47.9245 78.6146 44.7728 80.3671 41.9328C81.3176 40.3921 82.3 38.8705 83.3063 37.366ZM12.4044 60.7062C17.137 58.0229 21.6551 54.26 25.3041 50.088C27.3784 47.7163 30.1829 44.0776 28.8846 43.359C27.7346 42.7226 25.5247 43.8241 23.3973 44.6653C21.5441 45.3981 20.1954 46.1778 18.3559 46.9376L15.5783 52.8829C17.192 51.7959 18.6622 50.9943 20.1507 50.0583C20.6243 49.9929 21.0348 50.0291 21.0059 50.7739C20.9423 50.9112 20.9032 51.0719 20.791 51.1539C18.275 52.9923 16.6365 54.1409 13.9057 56.3155C13.6178 56.9119 13.0677 57.9821 12.7664 58.559C11.9483 60.1251 10.3325 60.8131 10.8759 59.2388C10.9388 59.0843 11.1397 58.5003 11.1992 58.354C10.5005 58.9252 6.76393 62.0825 6.44572 62.4824C6.0977 62.92 9.67794 62.2503 12.4044 60.7062ZM66.8739 32.0747L61.0878 34.5567C58.8153 38.4089 56.194 42.8178 53.8342 46.8849C49.8439 53.7627 46.4005 59.8435 42.4405 66.7424C42.1376 67.27 41.8148 67.7836 41.4417 68.1042C40.0957 69.2608 38.3082 69.6754 38.8263 66.801C39.3785 63.7372 40.2255 60.8227 41.1829 56.9072C41.3908 56.0574 42.6062 56.2156 42.4824 56.9551C42.1298 59.0615 41.777 61.1678 41.4243 63.2744C45.6967 55.5952 49.0365 49.7903 53.0687 42.545C53.3024 42.125 53.2659 42.174 52.9445 42.4365C50.9602 44.0569 48.8503 45.7167 46.9416 47.4182C43.9893 50.05 40.8345 52.8794 38.9639 53.1757C37.9297 53.3394 37.5682 52.1742 37.7016 50.8025C35.7005 53.0692 29.9241 55.7218 27.8118 52.5109C23.872 57.2827 16.9619 62.8921 10.8254 64.8772C9.78261 65.2143 8.77515 65.4817 7.6938 65.7053C6.11422 66.032 3.38065 66.3846 2.49468 65.2095C1.95517 64.394 1.89953 63.3026 2.70037 62.3612C4.93335 59.7359 9.69889 56.6813 12.685 54.7192L13.7442 52.2153L15.24 48.5254C10.5874 51.1046 5.81437 54.0653 1.23152 57.0444C0.194552 57.7185 -0.415246 56.4398 1.09136 55.3248C6.48561 51.0073 12.6318 47.6658 16.5255 44.2707C18.0391 42.8549 19.1204 39.8032 21.0502 35.647L22.8887 31.6106C20.4621 30.8954 18.23 31.574 16.1257 33.505C15.1008 34.4449 13.1055 34.8562 13.1055 32.4974C13.4766 28.3446 21.8586 27.3639 24.84 27.912L30.6925 15.9701C33.1547 11.4079 34.9673 15.1268 34.1149 17.3074C32.3253 21.1628 29.6642 25.0988 27.752 28.8825C29.6315 29.6426 30.4079 31.5611 30.0377 33.5329C29.6559 35.5669 28.1937 37.4263 27.0452 39.0143C29.3619 38.8774 32.2606 38.4857 32.3745 42.8893C34.4404 42.1997 41.4212 37.3163 42.9419 42.0933C43.5099 43.8783 42.4098 46.7912 40.3844 48.1948L40.3735 49.8986C45.0529 46.3814 49.9098 42.937 54.6178 39.6227C55.1361 38.6895 55.6583 37.7477 56.1856 36.7952C55.752 37.0285 54.4745 37.7503 53.3348 38.4606C51.4925 39.6088 48.7936 42.3174 46.71 42.0002C45.3631 41.7951 44.212 39.6417 46.1248 38.1684C48.6231 36.2444 55.8893 33.2191 58.7752 32.2863L70.2701 11.769C71.5304 9.51966 75.3021 11.171 73.4333 14.0617C71.1339 17.7756 62.8368 31.3599 63.0378 31.3599C64.1124 31.1237 66.3809 30.6809 67.4556 30.4444C69.2471 30.0311 68.2806 31.5787 66.8739 32.0747ZM25.8749 32.4691C24.5881 34.795 23.283 37.3 22.0318 39.7395C21.8859 40.0238 25.6349 38.3393 26.4115 34.6516C26.5873 33.8166 26.5613 33.0402 25.8749 32.4691Z" fill="black"/>
</svg>
