<svg width="17" height="17" viewBox="0 0 17 17" fill="none" xmlns="http://www.w3.org/2000/svg">
<path d="M5.60417 0.852539C2.96208 0.852539 0.8125 3.00212 0.8125 5.64421V11.8942C0.8125 14.5363 2.96208 16.6859 5.60417 16.6859H11.8542C14.4963 16.6859 16.6458 14.5363 16.6458 11.8942V5.64421C16.6458 3.00212 14.4963 0.852539 11.8542 0.852539H5.60417ZM12.8958 3.76921C13.3562 3.76921 13.7292 4.14212 13.7292 4.60254C13.7292 5.06254 13.3562 5.43587 12.8958 5.43587C12.4354 5.43587 12.0625 5.06254 12.0625 4.60254C12.0625 4.14212 12.4354 3.76921 12.8958 3.76921ZM8.72917 4.60254C11.0267 4.60254 12.8958 6.47171 12.8958 8.76921C12.8958 11.0667 11.0267 12.9359 8.72917 12.9359C6.43167 12.9359 4.5625 11.0667 4.5625 8.76921C4.5625 6.47171 6.43167 4.60254 8.72917 4.60254ZM8.72917 5.85254C8.34614 5.85254 7.96687 5.92798 7.61301 6.07456C7.25914 6.22113 6.93761 6.43597 6.66677 6.70681C6.39593 6.97765 6.18109 7.29918 6.03452 7.65305C5.88794 8.00691 5.8125 8.38618 5.8125 8.76921C5.8125 9.15223 5.88794 9.5315 6.03452 9.88537C6.18109 10.2392 6.39593 10.5608 6.66677 10.8316C6.93761 11.1024 7.25914 11.3173 7.61301 11.4639C7.96687 11.6104 8.34614 11.6859 8.72917 11.6859C9.11219 11.6859 9.49146 11.6104 9.84533 11.4639C10.1992 11.3173 10.5207 11.1024 10.7916 10.8316C11.0624 10.5608 11.2772 10.2392 11.4238 9.88537C11.5704 9.5315 11.6458 9.15223 11.6458 8.76921C11.6458 8.38618 11.5704 8.00691 11.4238 7.65305C11.2772 7.29918 11.0624 6.97765 10.7916 6.70681C10.5207 6.43597 10.1992 6.22113 9.84533 6.07456C9.49146 5.92798 9.11219 5.85254 8.72917 5.85254Z" fill="black"/>
</svg>
