<svg width="26" height="22" viewBox="0 0 26 22" fill="none" xmlns="http://www.w3.org/2000/svg" id="heart">
  <path d="M13.1013 19.776L21.4288 11.4472C23.475 9.40079 23.7768 6.03407 21.8404 3.8834C21.3554 3.34313 20.7654 2.90737 20.1064 2.60269C19.4475 2.29802 18.7333 2.13082 18.0076 2.11131C17.2819 2.09178 16.5599 2.22036 15.8854 2.48917C15.211 2.75798 14.5984 3.1614 14.0851 3.67481L12.5199 5.24025L11.1685 3.88865C9.12237 1.84219 5.75615 1.54027 3.6058 3.47691C3.0656 3.96201 2.6299 4.55209 2.32528 5.21117C2.02065 5.87025 1.85347 6.58449 1.83396 7.3103C1.81444 8.03613 1.943 8.75832 2.21177 9.43281C2.48054 10.1073 2.8839 10.72 3.39724 11.2334L11.9386 19.776C12.0927 19.9302 12.3019 20.0169 12.5199 20.0169C12.738 20.0169 12.9471 19.9302 13.1013 19.776Z" stroke="black" stroke-width="1.31543" stroke-linecap="round" stroke-linejoin="round" />
</svg>