<svg width="720" height="226" viewBox="0 0 720 226" fill="none" xmlns="http://www.w3.org/2000/svg">
<path opacity="0.15" fill-rule="evenodd" clip-rule="evenodd" d="M147.505 165.551C142.763 166.667 138.483 165.863 140.539 162.864C147.739 153.058 155.76 146.406 165.986 141.082C168.596 139.724 171.187 138.335 174.102 138.158C175.781 138.054 176.82 138.557 174.771 140.633C170.165 141.437 168.141 143.965 168.7 148.216L165.934 152.387C162.121 158.135 153.613 164.115 147.505 165.551ZM763.628 184.213L767.295 184.411L770.859 184.989L774.301 185.93L777.6 187.215L780.739 188.823L783.699 190.733C785.121 191.809 786.439 192.91 787.764 194.128C789.024 195.407 790.18 196.693 791.325 198.099C792.404 199.56 793.379 201.015 794.324 202.584L795.983 205.827L797.344 209.252L798.394 212.837L799.111 216.564L799.477 220.409V224.327L799.111 228.174L798.394 231.9L797.344 235.486L795.983 238.91L794.324 242.154L792.391 245.197C791.312 246.655 790.214 248.003 789.008 249.345C787.746 250.627 786.478 251.794 785.106 252.94L782.242 254.996L779.191 256.758L775.971 258.206L772.597 259.321L769.091 260.084L765.473 260.472H761.786L758.169 260.084L754.663 259.321L751.289 258.206L748.068 256.758L745.016 254.996C743.543 253.992 742.173 252.957 740.797 251.807C739.478 250.594 738.266 249.365 737.061 248.022C735.915 246.616 734.88 245.214 733.868 243.702L732.07 240.556L730.557 237.218L729.348 233.712L728.463 230.053L727.919 226.265L727.732 222.368L727.919 218.472L728.463 214.684L729.348 211.025L730.557 207.518L732.07 204.181L733.868 201.035C734.882 199.52 735.918 198.118 737.06 196.716C738.267 195.368 739.48 194.142 740.798 192.929L743.559 190.733C745.042 189.724 746.504 188.83 748.067 187.98L751.29 186.531L754.663 185.416L758.169 184.655L761.784 184.264L763.628 184.213ZM763.628 189.434C765.231 189.478 766.756 189.599 768.352 189.815C769.885 190.105 771.338 190.462 772.842 190.916C774.292 191.437 775.661 192.009 777.06 192.682C778.406 193.416 779.669 194.186 780.949 195.06C782.178 195.987 783.316 196.937 784.462 197.992C785.548 199.094 786.548 200.208 787.538 201.422C788.471 202.683 789.311 203.94 790.129 205.296C790.886 206.695 791.551 208.077 792.18 209.552C792.743 211.074 793.216 212.559 793.638 214.137C793.991 215.764 794.256 217.336 794.453 218.998C794.576 220.707 794.612 222.35 794.573 224.068C794.453 225.744 794.265 227.347 793.985 229.008C793.636 230.612 793.231 232.128 792.734 233.691C792.175 235.199 791.573 236.618 790.875 238.064C790.121 239.458 789.335 240.76 788.46 242.072C787.527 243.331 786.579 244.496 785.537 245.656C784.446 246.763 783.35 247.77 782.166 248.762C780.931 249.692 779.707 250.528 778.395 251.329C777.035 252.07 775.7 252.71 774.282 253.305C772.81 253.834 771.385 254.264 769.876 254.633C768.312 254.931 766.805 255.132 765.227 255.259C763.608 255.301 762.073 255.263 760.459 255.132C758.899 254.922 757.421 254.642 755.886 254.266C754.404 253.818 753.007 253.317 751.571 252.716C750.187 252.051 748.887 251.342 747.568 250.536C746.295 249.671 745.112 248.776 743.923 247.782C742.783 246.733 741.735 245.671 740.696 244.511C739.706 243.296 738.811 242.086 737.937 240.779C737.116 239.418 736.391 238.078 735.7 236.643C735.068 235.16 734.53 233.703 734.038 232.162C733.612 230.565 733.276 229.02 733.003 227.388C732.8 225.694 732.686 224.072 732.645 222.368C732.686 220.661 732.8 219.039 733.003 217.351C733.276 215.713 733.613 214.17 734.038 212.576C734.531 211.03 735.069 209.578 735.7 208.097C736.392 206.657 737.121 205.314 737.937 203.959C738.815 202.648 739.709 201.437 740.697 200.225C741.738 199.063 742.786 198.004 743.922 196.956C745.115 195.963 746.295 195.068 747.567 194.203C748.889 193.396 750.187 192.689 751.571 192.022C753.008 191.42 754.406 190.919 755.887 190.472C757.424 190.094 758.901 189.815 760.461 189.605L763.628 189.434ZM747.938 241.698V199.907H764.654C768.855 199.907 771.904 200.287 773.807 201.036C775.712 201.786 777.24 203.118 778.385 205.035C779.529 206.963 780.096 209.152 780.096 211.622C780.096 214.756 779.226 217.354 777.496 219.397C775.767 221.43 773.167 222.724 769.716 223.251C771.436 224.32 772.855 225.488 773.973 226.763C775.089 228.037 776.591 230.294 778.485 233.544L783.291 241.698H773.798L768.059 232.601C766.017 229.351 764.626 227.307 763.876 226.462C763.125 225.614 762.328 225.04 761.486 224.719C760.644 224.407 759.316 224.252 757.486 224.252H755.884V241.698H747.938ZM755.884 217.578H761.751C765.56 217.578 767.94 217.412 768.892 217.072C769.834 216.731 770.577 216.137 771.116 215.301C771.647 214.464 771.922 213.423 771.922 212.168C771.922 210.757 771.565 209.628 770.861 208.762C770.156 207.896 769.158 207.352 767.867 207.118C767.226 207.03 765.294 206.982 762.073 206.982H755.884V217.578ZM424.961 128.252C431.403 136.182 417.026 151.462 401.442 163.227C386.772 174.304 372.264 180.687 367.362 175.209C363.692 169.507 376.253 149.978 391.374 137.91C404.109 127.749 419.79 122.641 424.961 128.252ZM597.024 89.2081C587.991 89.8596 575.12 90.9314 564.343 91.4718C573.746 72.4546 602.962 24.1868 618.506 -0.341469C622.563 -6.74066 623.523 -13.436 623.523 -17.81C623.523 -28.1796 613.321 -24.5439 609.637 -19.6272C594.143 1.04086 551.791 79.4707 546.524 92.499C535.111 93.1021 517.175 94.094 505.439 94.9687C493.457 96.0425 496.265 118.153 508.415 115.595C520.702 113.009 533.018 110.338 538.536 109.164L537.104 112.32C515.736 136.947 484.846 171.554 457.33 187.282C450.484 191.195 436.349 197.873 437.14 189.687C437.562 185.331 442.738 175.826 446.808 169.606C455.865 155.763 472.589 140.98 485.465 127.229C490.15 122.225 496.682 115.097 494.505 107.618C492.401 100.393 487.623 98.6283 482.33 98.5303C478.938 98.4657 475.333 99.0869 472.088 99.392C459.823 100.543 448.352 101.637 435.998 102.714C433.176 102.96 432.088 104.204 431.173 106.47C416.363 103.701 404.296 107.75 386.976 117.597C381.095 120.94 370.539 128.864 362.024 142.467C358.603 147.931 355.179 154.69 353.055 160.672C351.182 165.952 350.398 170.637 350.412 173.184C350.459 180.972 353.522 187.369 364.23 189.261C366.414 189.622 368.602 189.825 370.767 189.702C393.413 188.406 423.032 157.198 435.712 135.782C443.125 132.311 442.12 127.905 442.395 123.444L465.171 121.046C448.468 133.572 390.304 217.482 442.083 209.089C466.539 205.126 504.887 162.327 528.017 131.968C529.109 130.534 529.115 130.319 528.352 132.08C517.622 156.836 507.883 181.403 498.632 207.193L498.659 206.975L498.685 206.757L498.712 206.539L498.738 206.321L498.765 206.104L498.791 205.887L498.818 205.669L498.844 205.451L498.871 205.233L498.898 205.016L498.923 204.798L498.95 204.58L498.977 204.363L499.003 204.146L499.03 203.927L499.057 203.709L499.083 203.492L499.109 203.275L499.136 203.057L499.163 202.838L499.189 202.621L499.215 202.403L499.242 202.186L499.269 201.968L499.295 201.751L499.321 201.532L499.347 201.315L499.375 201.097L499.401 200.88L499.428 200.662L499.454 200.444L499.481 200.226L499.507 200.008L499.533 199.791L499.56 199.574L499.587 199.356L499.613 199.137L499.639 198.92L499.666 198.703L499.693 198.485L499.719 198.267L499.745 198.05L499.773 197.831L499.798 197.614L499.825 197.396L499.852 197.179L499.878 196.961L499.904 196.743L499.931 196.525L499.958 196.308L499.984 196.09L500.011 195.872L500.037 195.655L500.064 195.437L500.09 195.219L500.116 195.002L500.142 194.784L500.17 194.566L500.196 194.349L500.222 194.13L500.249 193.913L500.276 193.696L500.302 193.477L500.328 193.26C500.902 188.545 497.408 190.193 496.318 193.331C492.25 205.021 482.944 224.072 484.037 236.314C484.802 244.889 491.733 243.991 495.146 237.657C500.87 227.036 504.317 217.622 508.383 208.287C525.122 168.715 542.311 134.321 557.172 105.032C565.317 103.161 570.323 102.177 577.531 100.716C579.361 100.503 579.854 99.9142 577.437 102.159C575.859 103.625 574.445 105.196 572.925 106.728C571.96 107.842 570.722 109.436 569.212 111.327C561.591 120.874 542.576 153.772 560.165 162.608C585.581 175.379 616.725 139.753 633.595 121.532C637.213 123.714 644.343 113.916 648.614 113.717C643.217 126.748 638.877 137.9 638.489 143.457C637.924 151.527 644.21 156.997 650.798 153.865C688.238 136.07 715.049 99.6364 755.552 82.5112C725.933 138.333 702.384 192.203 673.615 248.611C671.12 253.507 676.556 255.094 678.601 251.403C709.241 196.177 735.137 143.056 765.959 88.0647C768.446 83.6253 770.849 79.796 772.227 76.3596C776.367 66.0344 769.665 61.7617 761.912 62.2667C753.281 62.8303 742.943 69.4233 733.144 74.7637C706.777 90.9223 689.133 106.567 663.111 124.387C666.952 117.398 673.724 103.885 683.003 94.9475C695.083 83.3112 687.412 70.4687 679.057 70.6283C664.233 70.9122 659.105 85.3657 646.613 92.4607C645.527 93.0768 644.431 93.3536 643.384 93.6162C643.24 92.892 643.097 92.1869 642.89 91.4849C640.393 83.0243 635.912 80.8859 622.815 81.3334C614.586 81.6162 605.648 84.9051 597.024 89.2081ZM584.908 122.064C595.641 110.232 609.668 102.179 626.245 100.257L626.248 100.34L626.25 100.424L626.254 100.509L626.255 100.593L626.258 100.678L626.261 100.761L626.263 100.846L626.265 100.929L626.268 101.014L626.27 101.098L626.273 101.182L626.275 101.266L626.277 101.351L626.28 101.434L626.282 101.518L626.284 101.603L626.287 101.687L626.289 101.771L626.291 101.856L626.294 101.939L626.296 102.023L626.299 102.108L626.302 102.192L626.304 102.276L626.306 102.36L626.309 102.444L626.311 102.528L626.313 102.613L626.316 102.697L626.318 102.781L626.32 102.865L626.323 102.949L626.325 103.033L626.328 103.117L626.33 103.202L626.332 103.285L626.335 103.37L626.337 103.454L626.34 103.538L626.342 103.622L626.344 103.706L626.347 103.79L626.349 103.875L626.352 103.959L626.354 104.042L626.357 104.127L626.36 104.211L626.362 104.296L626.364 104.379L626.367 104.464L626.369 104.548L626.372 104.632L626.374 104.716L626.377 104.8L626.379 104.884L626.381 104.969L626.384 105.053L626.386 105.136L626.389 105.221L626.39 105.305L626.393 105.389L626.396 105.473L626.398 105.558L626.401 105.641C626.554 110.97 626.974 113.575 628.827 118.451C620.022 125.702 585.795 158.14 571.629 151.92C563.038 148.149 581.475 125.849 584.908 122.064ZM378.356 104.174C404.579 62.495 434.526 23.5865 465.536 -13.6738C481.544 -32.9066 497.733 -51.9394 514.345 -70.4962C518.735 -75.4003 513.816 -79.2152 509.359 -74.4004C440.39 0.121971 364.295 84.9061 322.631 183.432C335.964 131.611 354.937 66.3243 369.938 14.4418C376.511 -8.29318 364.613 -18.0421 354.615 0.544487C342.1 23.8108 329.424 46.9697 317.545 70.6758C291.339 126.827 259.638 180.282 232.796 236.207C228.953 244.213 223.714 250.89 222.249 256.6C217.834 273.811 233.139 275.897 239.472 263.377L337.636 69.295C340.672 62.3455 332.021 96.6788 320.524 140.827C309.344 183.765 297.344 226.466 286.163 269.37C284.535 275.612 283.103 282.288 282.654 288C281.704 300.043 288.163 305.709 293.783 300.349C297.156 297.132 299.4 288.761 301.877 278.732C311.467 239.896 325.258 203.537 342.027 169.152C348.795 155.261 357 140.011 364.977 126.27C369.303 118.815 373.775 111.454 378.356 104.174ZM55.6112 217.104C77.154 204.12 97.7204 185.914 114.33 165.728C123.773 154.254 136.538 136.648 130.628 133.171C125.394 130.091 115.334 135.421 105.651 139.491C97.2149 143.036 91.0758 146.809 82.7026 150.485L70.059 179.252C77.4046 173.992 84.0966 170.114 90.8722 165.585C93.0278 165.269 94.8969 165.443 94.7654 169.048C94.4754 169.711 94.2979 170.49 93.7869 170.886C82.334 179.781 74.8755 185.338 62.4449 195.86C61.1349 198.745 58.6306 203.923 57.2591 206.715C53.5351 214.293 46.18 217.621 48.6535 210.004C48.9396 209.257 49.8541 206.431 50.1253 205.723C46.9446 208.487 29.9359 223.763 28.4874 225.698C26.9031 227.815 43.2004 224.575 55.6112 217.104ZM303.556 78.5718L277.217 90.5809C266.873 109.22 254.941 130.553 244.199 150.23C226.035 183.508 210.361 212.93 192.335 246.31C190.957 248.863 189.487 251.348 187.789 252.899C181.662 258.495 173.525 260.501 175.884 246.593C178.397 231.77 182.253 217.668 186.611 198.723C187.557 194.611 193.09 195.377 192.526 198.955C190.92 209.146 189.315 219.337 187.71 229.53C207.158 192.375 222.36 164.288 240.715 129.232C241.779 127.2 241.612 127.437 240.149 128.707C231.116 136.548 221.512 144.579 212.824 152.811C199.385 165.544 185.025 179.234 176.509 180.668C171.802 181.461 170.157 175.822 170.764 169.186C161.656 180.153 135.361 192.988 125.745 177.452C107.811 200.54 76.3573 227.681 48.4233 237.285C43.677 238.916 39.0909 240.21 34.1686 241.292C26.9784 242.873 14.5352 244.579 10.5022 238.893C8.04643 234.948 7.79312 229.667 11.4386 225.112C21.6031 212.41 43.2959 197.629 56.8885 188.136L61.7102 176.021L68.5185 158.168C47.3407 170.648 25.6134 184.973 4.75236 199.387C0.0321022 202.649 -2.7437 196.462 4.11434 191.067C28.6689 170.177 56.6461 154.008 74.3702 137.582C81.2602 130.731 86.1824 115.967 94.9668 95.8566L103.335 76.3263C92.2896 72.8667 82.1294 76.1495 72.5504 85.493C67.8855 90.0405 58.8024 92.0303 58.8024 80.6172C60.4915 60.5243 98.647 55.7788 112.218 58.4314L138.859 0.651154C150.067 -21.4228 158.317 -3.42925 154.437 7.12166C146.291 25.7758 134.178 44.8202 125.474 63.1273C134.028 66.8051 137.563 76.0869 135.878 85.6273C134.139 95.4687 127.484 104.466 122.256 112.15C132.801 111.487 145.996 109.591 146.515 130.898C155.919 127.562 187.695 103.933 194.617 127.047C197.203 135.683 192.195 149.777 182.976 156.568L182.926 164.812C204.227 147.795 226.335 131.129 247.767 115.093C250.125 110.578 252.503 106.021 254.903 101.412C252.929 102.54 247.114 106.033 241.926 109.47C233.539 115.026 221.255 128.131 211.77 126.596C205.638 125.604 200.399 115.185 209.106 108.057C220.478 98.7465 253.554 84.1091 266.69 79.596L319.015 -19.6754C324.753 -30.5588 341.921 -22.5688 333.414 -8.58228C322.947 9.38702 285.179 75.1142 286.094 75.1142C290.986 73.9707 301.312 71.8283 306.204 70.6839C314.359 68.6849 309.96 76.1728 303.556 78.5718ZM116.928 80.4809C111.071 91.7344 105.13 103.855 99.4349 115.658C98.7705 117.033 115.836 108.884 119.372 91.0405C120.172 87 120.054 83.2435 116.928 80.4809Z" fill="url(#paint0_linear_186_82)"/>
<defs>
<linearGradient id="paint0_linear_186_82" x1="399.738" y1="-76.6191" x2="399.738" y2="302.376" gradientUnits="userSpaceOnUse">
<stop stop-color="white"/>
<stop offset="1" stop-color="white" stop-opacity="0"/>
</linearGradient>
</defs>
</svg>
